<svg width="90" height="89" viewBox="0 0 90 89" fill="none" xmlns="http://www.w3.org/2000/svg">
<circle cx="45" cy="44.5" r="43.5" fill="white" stroke="#ED1117" stroke-width="2"/>
<path d="M25.1306 83.197C27.5638 84.4463 30.1094 85.4634 32.7336 86.2347" stroke="#F88C00" stroke-width="2"/>
<path d="M72.9669 11.1818C70.8719 9.42326 68.6157 7.86626 66.2283 6.53146" stroke="#F88C00" stroke-width="2"/>
<path d="M61.3243 4.17918C58.7889 3.15274 56.1625 2.3677 53.4797 1.83451" stroke="#F88C00" stroke-width="2"/>
<path d="M14.1554 75.1734C16.0841 77.1129 18.1914 78.8661 20.4493 80.4098" stroke="#F88C00" stroke-width="2"/>
<path d="M32.7307 86.2339C34.4795 86.748 36.2588 87.1516 38.0581 87.4425" stroke="white" stroke-width="2"/>
<path d="M76.9173 14.9443C75.6788 13.6069 74.3576 12.3487 72.9613 11.1771" stroke="white" stroke-width="2"/>
<path d="M66.2436 6.54001C64.653 5.64987 63.008 4.86058 61.3184 4.17681" stroke="white" stroke-width="2"/>
<path d="M53.5098 1.84049C51.7223 1.48392 49.9141 1.24004 48.096 1.11032" stroke="white" stroke-width="2"/>
<path d="M20.4513 80.4112C21.956 81.4398 23.524 82.3728 25.1457 83.2048" stroke="white" stroke-width="2"/>
<path d="M10.5618 71.0756C11.6754 72.5186 12.8785 73.8902 14.1642 75.1823" stroke="white" stroke-width="2"/>
<g filter="url(#filter0_d_1232_1100)">
<circle cx="45" cy="44.5" r="38" fill="white"/>
</g>
<path fill-rule="evenodd" clip-rule="evenodd" d="M66.4265 36.0438L45.7352 27.4542C45.6152 27.4044 45.4805 27.4033 45.3597 27.451L23.6338 36.0408C23.2201 36.2043 23.21 36.7861 23.6177 36.964L27.677 38.7352V52.0637H27.3382C27.0621 52.0637 26.8382 52.2876 26.8382 52.5637V53.3174C26.8382 53.5936 27.0621 53.8174 27.3382 53.8174H27.677V56.6983C27.677 56.7558 27.6681 56.813 27.6446 56.8655C27.175 57.9097 24.9619 58.6929 23.3725 59.0903C22.9964 59.1843 22.8435 59.6456 23.1125 59.9248C24.0634 60.9115 25.4974 62.2392 26.4511 62.586C27.6229 63.0121 29.0628 59.5301 29.6602 57.6669C29.6758 57.6183 29.6832 57.5687 29.6832 57.5175V53.8174H30.4029C30.679 53.8174 30.9029 53.5936 30.9029 53.3174V52.5637C30.9029 52.2876 30.679 52.0637 30.4029 52.0637H29.6832V39.6105L45.3432 46.4433C45.4736 46.5002 45.622 46.4989 45.7514 46.4396L66.4431 36.9601C66.8399 36.7784 66.8296 36.2111 66.4265 36.0438ZM32.9675 44.1447V49.7482C32.9675 49.9286 33.0644 50.0949 33.2216 50.1833C36.0207 51.7565 41.4584 54.7176 42.7097 55.0315C44.3227 55.4362 45.8066 55.3688 47.5486 55.0315C48.3139 54.8834 50.58 53.5079 52.9664 51.9441L51.8302 50.9151L53.5496 50.7626L54.2215 49.1051L54.8616 50.6816C56.0737 49.8622 57.2208 49.0658 58.1141 48.4344C58.2464 48.3409 58.3231 48.1902 58.3231 48.0281V44.1314C58.3231 43.7697 57.9518 43.5269 57.62 43.6711C53.6843 45.3819 46.4496 48.2865 45.9641 48.2865H44.9709C44.5837 48.2865 37.4872 45.3996 33.6791 43.6868C33.3462 43.5371 32.9675 43.7796 32.9675 44.1447Z" fill="#154398"/>
<path d="M51.6956 60.3818V54.5117H56.4782V60.3818L54.0869 58.7809L51.6956 60.3818Z" fill="#ED1117"/>
<path d="M54.2211 55.8896C56.5009 55.8896 58.3303 53.9607 58.3303 51.605C58.3303 49.2492 56.5009 47.3203 54.2211 47.3203C51.9412 47.3203 50.1118 49.2492 50.1118 51.605C50.1118 53.9607 51.9412 55.8896 54.2211 55.8896Z" stroke="white" stroke-width="0.5"/>
<g clip-path="url(#clip0_1232_1100)">
<path fill-rule="evenodd" clip-rule="evenodd" d="M54.4011 55.6396C56.6294 55.6396 58.4358 53.8333 58.4358 51.605C58.4358 49.3767 56.6294 47.5703 54.4011 47.5703C52.1728 47.5703 50.3665 49.3767 50.3665 51.605C50.3665 53.8333 52.1728 55.6396 54.4011 55.6396ZM56.6129 50.9155L54.8935 50.7605L54.2216 49.1055L53.5496 50.763L51.8303 50.9155L53.1359 52.098L52.7438 53.8555L54.2216 52.923L55.6994 53.8555L55.3096 52.098L56.6129 50.9155Z" fill="#ED1117"/>
</g>
<defs>
<filter id="filter0_d_1232_1100" x="2" y="1.5" width="86" height="86" filterUnits="userSpaceOnUse" color-interpolation-filters="sRGB">
<feFlood flood-opacity="0" result="BackgroundImageFix"/>
<feColorMatrix in="SourceAlpha" type="matrix" values="0 0 0 0 0 0 0 0 0 0 0 0 0 0 0 0 0 0 127 0" result="hardAlpha"/>
<feOffset/>
<feGaussianBlur stdDeviation="2.5"/>
<feComposite in2="hardAlpha" operator="out"/>
<feColorMatrix type="matrix" values="0 0 0 0 0.0823529 0 0 0 0 0.262745 0 0 0 0 0.596078 0 0 0 0.1 0"/>
<feBlend mode="normal" in2="BackgroundImageFix" result="effect1_dropShadow_1232_1100"/>
<feBlend mode="normal" in="SourceGraphic" in2="effect1_dropShadow_1232_1100" result="shape"/>
</filter>
<clipPath id="clip0_1232_1100">
<rect width="8.60869" height="9" fill="white" transform="translate(50.261 47.3828)"/>
</clipPath>
</defs>
</svg>
