<svg width="90" height="89" viewBox="0 0 90 89" fill="none" xmlns="http://www.w3.org/2000/svg">
<circle cx="45" cy="44.5" r="43.5" fill="white" stroke="#ED1117" stroke-width="2"/>
<path d="M25.1306 83.197C27.5638 84.4463 30.1094 85.4634 32.7336 86.2347" stroke="#F88C00" stroke-width="2"/>
<path d="M72.9669 11.1818C70.8719 9.42326 68.6157 7.86626 66.2283 6.53146" stroke="#F88C00" stroke-width="2"/>
<path d="M61.3243 4.17918C58.7889 3.15274 56.1625 2.3677 53.4797 1.83451" stroke="#F88C00" stroke-width="2"/>
<path d="M14.1554 75.1734C16.0841 77.1129 18.1914 78.8661 20.4493 80.4098" stroke="#F88C00" stroke-width="2"/>
<path d="M32.7307 86.2339C34.4795 86.748 36.2588 87.1516 38.0581 87.4425" stroke="white" stroke-width="2"/>
<path d="M76.9173 14.9443C75.6788 13.6069 74.3576 12.3487 72.9613 11.1771" stroke="white" stroke-width="2"/>
<path d="M66.2436 6.54001C64.653 5.64987 63.008 4.86058 61.3184 4.17681" stroke="white" stroke-width="2"/>
<path d="M53.5098 1.84049C51.7223 1.48392 49.9141 1.24004 48.096 1.11032" stroke="white" stroke-width="2"/>
<path d="M20.4513 80.4112C21.956 81.4398 23.524 82.3728 25.1457 83.2048" stroke="white" stroke-width="2"/>
<path d="M10.5618 71.0756C11.6754 72.5186 12.8785 73.8902 14.1642 75.1823" stroke="white" stroke-width="2"/>
<g filter="url(#filter0_d_1232_34474)">
<circle cx="45" cy="44.5" r="38" fill="white"/>
</g>
<path d="M40.2496 34.35V27.95H49.6496C49.6496 36.6 49.6496 14.9 49.6496 42.85C48.9496 43.35 48.4996 44.15 48.5496 45.1C48.7496 48.35 53.6496 48.25 53.6496 44.95C53.6496 44.1 53.1996 43.3 52.5496 42.85C52.5496 39.1 52.5496 28.75 52.5496 25C49.0496 25 42.3496 25 37.2996 25C37.2496 25 37.2996 34.4 37.2996 34.35C37.2996 36.3 40.2496 36.25 40.2496 34.35Z" fill="#ED1117"/>
<path d="M34.35 49.6009H27.95V40.2009C38.7 40.2009 35.85 40.2009 42.85 40.2009C44.25 42.2009 47.4 41.2509 47.5 38.8509C47.6 36.3009 44.3 35.201 42.85 37.301C39.25 37.301 28.6 37.301 25 37.301V52.551C25 52.601 34.4 52.551 34.35 52.551C36.35 52.501 36.3 49.6009 34.35 49.6009Z" fill="#154398"/>
<path d="M54.0501 38.7512C54.0501 40.7012 56.0001 40.2012 61.9501 40.2012V49.6012C53.3001 49.6012 75.0001 49.6012 47.0501 49.6012C46.5501 48.9012 45.7501 48.4512 44.8001 48.5012C41.5501 48.7012 41.6501 53.6012 44.9501 53.6012C45.8001 53.6012 46.6001 53.1512 47.0501 52.5012C65.5501 52.5012 64.9001 52.5512 64.9001 52.5012V37.2512C55.6501 37.3012 54.0501 36.8012 54.0501 38.7512Z" fill="#154398"/>
<path d="M49.65 61.9013H40.25C40.25 38.1013 40.25 70.7013 40.25 47.0013C40.95 46.5013 41.4 45.7013 41.35 44.7513C41.15 41.5013 36.25 41.6013 36.25 44.9013C36.25 45.7513 36.7 46.5513 37.35 47.0013C37.35 57.0013 37.35 54.8513 37.35 64.8513C40.85 64.8513 47.55 64.8513 52.6 64.8513C52.65 64.8513 52.6 55.4513 52.6 55.5013C52.6 53.8513 50.75 54.0513 51.15 54.0513C49.15 54.0013 49.65 55.9513 49.65 61.9013Z" fill="#ED1117"/>
<defs>
<filter id="filter0_d_1232_34474" x="2" y="1.5" width="86" height="86" filterUnits="userSpaceOnUse" color-interpolation-filters="sRGB">
<feFlood flood-opacity="0" result="BackgroundImageFix"/>
<feColorMatrix in="SourceAlpha" type="matrix" values="0 0 0 0 0 0 0 0 0 0 0 0 0 0 0 0 0 0 127 0" result="hardAlpha"/>
<feOffset/>
<feGaussianBlur stdDeviation="2.5"/>
<feComposite in2="hardAlpha" operator="out"/>
<feColorMatrix type="matrix" values="0 0 0 0 0.0823529 0 0 0 0 0.262745 0 0 0 0 0.596078 0 0 0 0.1 0"/>
<feBlend mode="normal" in2="BackgroundImageFix" result="effect1_dropShadow_1232_34474"/>
<feBlend mode="normal" in="SourceGraphic" in2="effect1_dropShadow_1232_34474" result="shape"/>
</filter>
</defs>
</svg>
