<svg width="90" height="89" viewBox="0 0 90 89" fill="none" xmlns="http://www.w3.org/2000/svg">
<circle cx="45" cy="44.5" r="43.5" fill="white" stroke="#ED1117" stroke-width="2"/>
<path d="M25.1306 83.197C27.5638 84.4463 30.1094 85.4634 32.7336 86.2347" stroke="#F88C00" stroke-width="2"/>
<path d="M72.9669 11.1818C70.8719 9.42326 68.6157 7.86626 66.2283 6.53146" stroke="#F88C00" stroke-width="2"/>
<path d="M61.3243 4.17918C58.7889 3.15274 56.1625 2.3677 53.4797 1.83451" stroke="#F88C00" stroke-width="2"/>
<path d="M14.1554 75.1734C16.0841 77.1129 18.1914 78.8661 20.4493 80.4098" stroke="#F88C00" stroke-width="2"/>
<path d="M32.7307 86.2339C34.4795 86.748 36.2588 87.1516 38.0581 87.4425" stroke="white" stroke-width="2"/>
<path d="M76.9173 14.9443C75.6788 13.6069 74.3576 12.3487 72.9613 11.1771" stroke="white" stroke-width="2"/>
<path d="M66.2436 6.54001C64.653 5.64987 63.008 4.86058 61.3184 4.17681" stroke="white" stroke-width="2"/>
<path d="M53.5098 1.84049C51.7223 1.48392 49.9141 1.24004 48.096 1.11032" stroke="white" stroke-width="2"/>
<path d="M20.4513 80.4112C21.956 81.4398 23.524 82.3728 25.1457 83.2048" stroke="white" stroke-width="2"/>
<path d="M10.5618 71.0756C11.6754 72.5186 12.8785 73.8902 14.1642 75.1823" stroke="white" stroke-width="2"/>
<g filter="url(#filter0_d_1232_4084)">
<circle cx="45" cy="44.5" r="38" fill="white"/>
</g>
<circle cx="45" cy="44.5" r="20" stroke="#ED1117" stroke-width="2"/>
<circle cx="48.5" cy="43" r="1.5" stroke="#ED1117" stroke-width="1.5"/>
<path d="M50 42L60 32" stroke="#ED1117" stroke-width="1.5" stroke-linecap="round"/>
<path fill-rule="evenodd" clip-rule="evenodd" d="M38.5 42.4995L37 57.9995H40V42.4995H38.5ZM32.5 38.4995C36.5 37.6995 38.1667 40.8328 38.5 42.4995C34.5 42.8999 32.8333 39.9997 32.5 38.4995ZM41 51.499V57.9995L51 57.999V55.999H53V57.999L54 57.9995V48.999L49.5 51.499V48.999L45 51.499V48.999L41 51.499ZM42 53.499V55.499H44V53.499H42ZM45 55.499V53.499H47V55.499H45ZM48 53.499V55.499H50V53.499H48Z" fill="#154398"/>
<defs>
<filter id="filter0_d_1232_4084" x="2" y="1.5" width="86" height="86" filterUnits="userSpaceOnUse" color-interpolation-filters="sRGB">
<feFlood flood-opacity="0" result="BackgroundImageFix"/>
<feColorMatrix in="SourceAlpha" type="matrix" values="0 0 0 0 0 0 0 0 0 0 0 0 0 0 0 0 0 0 127 0" result="hardAlpha"/>
<feOffset/>
<feGaussianBlur stdDeviation="2.5"/>
<feComposite in2="hardAlpha" operator="out"/>
<feColorMatrix type="matrix" values="0 0 0 0 0.0823529 0 0 0 0 0.262745 0 0 0 0 0.596078 0 0 0 0.1 0"/>
<feBlend mode="normal" in2="BackgroundImageFix" result="effect1_dropShadow_1232_4084"/>
<feBlend mode="normal" in="SourceGraphic" in2="effect1_dropShadow_1232_4084" result="shape"/>
</filter>
</defs>
</svg>
