<svg width="80" height="81" viewBox="0 0 80 81" fill="none" xmlns="http://www.w3.org/2000/svg">
<circle cx="40" cy="40.5" r="39" fill="url(#paint0_linear_165_9954)" stroke="url(#paint1_linear_165_9954)" stroke-width="2"/>
<path d="M35.2496 29.85V23.45H44.6496C44.6496 32.1 44.6496 10.4 44.6496 38.35C43.9496 38.85 43.4996 39.65 43.5496 40.6C43.7496 43.85 48.6496 43.75 48.6496 40.45C48.6496 39.6 48.1996 38.8 47.5496 38.35C47.5496 34.6 47.5496 24.25 47.5496 20.5C44.0496 20.5 37.3496 20.5 32.2996 20.5C32.2496 20.5 32.2996 29.9 32.2996 29.85C32.2996 31.8 35.2496 31.75 35.2496 29.85Z" fill="white"/>
<path d="M29.35 45.1009H22.95V35.7009C33.7 35.7009 30.85 35.7009 37.85 35.7009C39.25 37.7009 42.4 36.7509 42.5 34.3509C42.6 31.8009 39.3 30.701 37.85 32.801C34.25 32.801 23.6 32.801 20 32.801V48.051C20 48.101 29.4 48.051 29.35 48.051C31.35 48.001 31.3 45.1009 29.35 45.1009Z" fill="white"/>
<path d="M49.0501 34.2512C49.0501 36.2012 51.0001 35.7012 56.9501 35.7012V45.1012C48.3001 45.1012 70.0001 45.1012 42.0501 45.1012C41.5501 44.4012 40.7501 43.9512 39.8001 44.0012C36.5501 44.2012 36.6501 49.1012 39.9501 49.1012C40.8001 49.1012 41.6001 48.6512 42.0501 48.0012C60.5501 48.0012 59.9001 48.0512 59.9001 48.0012V32.7512C50.6501 32.8012 49.0501 32.3012 49.0501 34.2512Z" fill="white"/>
<path d="M44.65 57.4013H35.25C35.25 33.6013 35.25 66.2013 35.25 42.5013C35.95 42.0013 36.4 41.2013 36.35 40.2513C36.15 37.0013 31.25 37.1013 31.25 40.4013C31.25 41.2513 31.7 42.0513 32.35 42.5013C32.35 52.5013 32.35 50.3513 32.35 60.3513C35.85 60.3513 42.55 60.3513 47.6 60.3513C47.65 60.3513 47.6 50.9513 47.6 51.0013C47.6 49.3513 45.75 49.5513 46.15 49.5513C44.15 49.5013 44.65 51.4513 44.65 57.4013Z" fill="white"/>
<defs>
<linearGradient id="paint0_linear_165_9954" x1="40" y1="2.5" x2="40" y2="78.5" gradientUnits="userSpaceOnUse">
<stop stop-color="#6E6BFF"/>
<stop offset="1" stop-color="#A4B7FF"/>
</linearGradient>
<linearGradient id="paint1_linear_165_9954" x1="40" y1="2.5" x2="40" y2="78.5" gradientUnits="userSpaceOnUse">
<stop stop-color="#A4B7FF"/>
<stop offset="1" stop-color="#6E6BFF"/>
</linearGradient>
</defs>
</svg>
